<?xml version="1.0" encoding="utf-8"?>
<!-- Generator: Adobe Illustrator 26.2.1, SVG Export Plug-In . SVG Version: 6.00 Build 0)  -->
<svg version="1.1" id="Layer_1" xmlns="http://www.w3.org/2000/svg" xmlns:xlink="http://www.w3.org/1999/xlink" x="0px" y="0px"
	 width="1800" height="1400" viewBox="0 0 1800 1400" style="enable-background:new 0 0 1800 1400;" xml:space="preserve">
<style type="text/css">
<!-- Green -->
	.st0 {
    width: 200px;
    height: 200px;
    animation: play 0.7s steps(7) infinite;
    fill: #a80666;
    fill-opacity: 0.05;
    stroke: #fff;
    stroke-opacity: 70%;
    filter: 
        drop-shadow(0 0 .2rem rgb(255, 255, 255))
        drop-shadow(0 0 .3rem #0fa)
        drop-shadow(0 0 .7rem #0fa);
    transition: opacity 100ms linear;
}
<!-- Pink -->
	.st1 {
    width: 200px;
    height: 200px;
    animation: play 0.7s steps(7) infinite;
    fill: #a80666;
    fill-opacity: 0.05;
    stroke: #fff;
    stroke-opacity: 70%;
    filter: 
        drop-shadow(0 0 .2rem rgb(255, 255, 255))
        drop-shadow(0 0 .3rem #f09)
        drop-shadow(0 0 .7rem #f09);
    transition: opacity 100ms linear;
}
<!-- Blue -->
	.st2 {
    width: 200px;
    height: 200px;
    animation: play 0.7s steps(7) infinite;
    fill: #a80666;
    fill-opacity: 0.05;
    stroke: #fff;
    stroke-opacity: 70%;
    filter: 
        drop-shadow(0 0 .2rem rgb(255, 255, 255))
        drop-shadow(0 0 .3rem #5271ff)
        drop-shadow(0 0 .7rem #5271ff);
    transition: opacity 100ms linear;
}
<!-- Green Hover -->
	.st0a {
    width: 200px;
    height: 200px;
    animation: play 0.7s steps(7) infinite;
    fill: #1b9669;
    fill-opacity: 0.5;
    stroke: #fff;
    stroke-opacity: 70%;
    filter: 
		drop-shadow(0 0 .2rem #ffe4f4)
		drop-shadow(0 0 .7rem #0fa)
		drop-shadow(0 0 1.2rem #0fa);
    transition: opacity 100ms linear;
}
<!-- Pink Hover -->
	.st1a {
    width: 200px;
    height: 200px;
    animation: play 0.7s steps(7) infinite;
    fill: #a80666;
    fill-opacity: 0.5;
    stroke: #fff;
    stroke-opacity: 70%;
    filter: 
		drop-shadow(0 0 .2rem #ffe4f4)
		drop-shadow(0 0 .7rem #f09)
		drop-shadow(0 0 1.2rem #f09);
    transition: opacity 100ms linear;
}
<!-- Blue Hover -->
	.st2a {
    width: 200px;
    height: 200px;
    animation: play 0.7s steps(7) infinite;
    fill: #4554a7;
    fill-opacity: 0.5;
    stroke: #fff;
    stroke-opacity: 70%;
    filter: 
		drop-shadow(0 0 .2rem #ffe4f4)
		drop-shadow(0 0 .7rem #5271ff)
		drop-shadow(0 0 1.2rem #5271ff);
    transition: opacity 100ms linear;
}
</style>
<path class="st0" d="M153,268.6c4,0,17.4,0,28.5,4.6c9.9,4.1,22.8,17.2,25.3,19.2c7,5.5,12.5,5.5,19.3,10.6
	c4.1,3.1,10.2,7.7,8.9,17.2c-0.3,2.2-12.5,11.3-20.8,14c-14.5,4.6-39.2,6.3-61.6,6.3h-2.8c-22.4,0-47.1-1.7-61.6-6.3
	c-8.3-2.7-20.5-11.7-20.8-14c-1.2-9.5,4.8-14.1,8.9-17.2c6.8-5.1,12.2-5.1,19.3-10.6c2.6-2,15.4-15.2,25.3-19.2
	c11.2-4.6,24.5-4.6,28.5-4.6H153z"/>
<path class="st0" d="M152.6,457.6c4.2,0,28.8,4.2,41.2,11.6c9.8,5.8,24,18.6,28.6,25.8c4.2,6.7,14.4,6.4,16.4,8.3s-0.1,6.1-0.1,6.1
	c-2.4,2.9-22.1,12.3-30.8,15.2c-15.2,5.1-32.3,11.3-55.8,11.3h-1.8c-23.5,0-40.6-6.2-55.8-11.3c-8.7-2.9-28.4-12.2-30.7-15.2
	c0,0-2.1-4.3-0.1-6.1c2-1.9,12.2-1.6,16.4-8.3c4.6-7.3,18.8-20,28.6-25.8c12.5-7.5,37.1-11.6,41.2-11.6L152.6,457.6L152.6,457.6z"/>
<path class="st0" d="M152.2,661.8c4.2,0,35.7-1.6,52.6,11.4c10.6,8.1,16.9,21.7,19.4,26.3c3.1,5.9,10,7.5,13.4,9.8
	c3,2-3.1,6.1-3.1,6.1c-8.6,5.8-23.6,11.9-32.4,14.2c-16,4.3-26.7,5.2-50.2,5.2h-1.2c-23.5,0-34.2-0.9-50.2-5.2
	c-8.8-2.4-23.8-8.4-32.4-14.2c0,0-6.1-4.1-3.1-6.1c3.4-2.2,10.3-3.9,13.4-9.8c2.5-4.7,8.7-18.2,19.4-26.3
	c16.9-13,48.4-11.4,52.6-11.4H152.2z"/>
<path class="st0" d="M152.5,851.7c3.8,0,29.5-0.4,46.7,10.6c8.5,5.5,21.5,16.1,23.2,30.9c1.7,14.9-9.9,22.1,2.7,27.3
	c2,0.8-1.2,6-1.2,6c-4.4,8.5-24.9,13.3-26,13.6c-6.6,1.7-24.4,4.4-45.8,4.4h-1.8c-21.4,0-39.2-2.7-45.8-4.4
	c-1.1-0.3-21.5-5.1-26-13.6c0,0-3.2-5.2-1.2-6c12.7-5.3,1.1-12.5,2.7-27.3c1.7-14.8,14.6-25.4,23.2-30.9
	c17.2-11.1,42.8-10.6,46.7-10.6H152.5z"/>
<path class="st0" d="M152.1,1053.3c4.2,0,27.3-1.7,44.6,8.6c9.3,5.5,23.3,13.5,23.1,39.2c-0.1,17.2-20.9,25.8-9.6,34.3
	c1.9,1.5,1.5,4.3,1.5,4.3c-8.3,7.5-34.4,7.2-35.7,7.3c-7.7,0.4-12.2-0.2-24.4-0.2h-0.9c-12.2,0-16.7,0.7-24.4,0.2
	c-1.2-0.1-27.4,0.2-35.7-7.3c0,0-0.4-2.8,1.5-4.3c11.3-8.5-9.5-17.1-9.6-34.3c-0.2-25.7,13.8-33.7,23.1-39.2
	c17.3-10.2,40.4-8.6,44.6-8.6H152.1z"/>
<path class="st0" d="M151.8,1254.7c4.3,0,11.8,1.2,15.9,2.2c4.5,1.2,14.5,7.5,18.5,9.8c5,2.9,13.2,4,25.5,13.9
	c9.6,7.8,16.6,13.4,14.9,27.8c-0.8,6.4-10.8,9.8-12.8,12.9c-9.6,14.7-37.6,22-61.9,22h-1.1c-24.3,0-52.3-7.3-61.9-22
	c-2.1-3.1-12-6.6-12.8-12.9c-1.7-14.4,5.3-20,14.9-27.8c12.3-10,20.5-11,25.5-13.9c4-2.3,14-8.6,18.5-9.8c4-1.1,11.6-2.2,15.9-2.2
	H151.8z"/>
<g id="Frame_1_00000091002902764178833980000015817481644056798632_">
	<path class="st0" d="M152.5,58c4.6,0,9.6,0.1,13.9,1.1c4.8,1.2,14.6,5.9,18.8,8.2c5.3,2.9,17.7,3.8,30.8,13.6
		c10.2,7.7,16.2,21.8,16.1,34.9c0,2.5-9.2,9.5-18.2,13.6c-16.1,7.4-35.5,8.7-61.3,8.7h-2.4c-25.8,0-45.2-1.4-61.3-8.7
		c-9.1-4.2-18.2-11.1-18.2-13.6c-0.4-13.2,5.6-27.3,15.8-34.9C99.6,71,112,70.1,117.3,67.2c4.2-2.3,14-7,18.8-8.2
		c4.3-1,9.3-1.1,13.9-1.1L152.5,58L152.5,58z"/>
</g>
<path class="st1" d="M453.1,268.3c4,0,17.4,0,28.5,4.6c9.9,4.1,22.8,17.2,25.3,19.2c7,5.5,12.5,5.5,19.3,10.6
	c4.1,3.1,10.2,7.7,8.9,17.2c-0.3,2.2-12.5,11.3-20.8,14c-14.5,4.6-39.2,6.3-61.6,6.3h-2.8c-22.4,0-47.1-1.7-61.6-6.3
	c-8.3-2.7-20.5-11.7-20.8-14c-1.2-9.5,4.8-14.1,8.9-17.2c6.8-5.1,12.2-5.1,19.3-10.6c2.6-2,15.4-15.2,25.3-19.2
	c11.2-4.6,24.5-4.6,28.5-4.6H453.1z"/>
<path class="st1" d="M452.7,457.3c4.2,0,28.8,4.2,41.2,11.6c9.8,5.8,24,18.6,28.6,25.8c4.2,6.7,14.4,6.4,16.4,8.3s-0.1,6.1-0.1,6.1
	c-2.4,2.9-22,12.3-30.8,15.2c-15.2,5.1-32.3,11.3-55.8,11.3h-1.9c-23.5,0-40.6-6.2-55.8-11.3c-8.7-2.9-28.4-12.2-30.8-15.2
	c0,0-2.1-4.3-0.1-6.1c2-1.9,12.2-1.6,16.4-8.3c4.6-7.3,18.8-20,28.6-25.8c12.5-7.5,37.1-11.6,41.2-11.6H452.7z"/>
<path class="st1" d="M452.3,661.5c4.2,0,35.7-1.6,52.6,11.4c10.6,8.1,16.9,21.7,19.4,26.3c3.1,5.9,10,7.5,13.4,9.8
	c3,2-3.1,6.1-3.1,6.1c-8.6,5.8-23.6,11.9-32.4,14.2c-16,4.3-26.7,5.2-50.2,5.2h-1.2c-23.5,0-34.2-0.9-50.2-5.2
	c-8.8-2.4-23.8-8.4-32.4-14.2c0,0-6.1-4.1-3.1-6.1c3.4-2.2,10.3-3.9,13.4-9.8c2.5-4.7,8.8-18.2,19.4-26.3
	c16.9-13,48.4-11.4,52.6-11.4H452.3z"/>
<path class="st1" d="M452.6,851.4c3.9,0,29.5-0.4,46.7,10.6c8.5,5.5,21.5,16.1,23.2,30.9c1.7,14.9-9.9,22.1,2.7,27.3
	c2,0.8-1.2,6-1.2,6c-4.4,8.5-24.9,13.3-26,13.6c-6.6,1.7-24.4,4.4-45.8,4.4h-1.8c-21.4,0-39.2-2.7-45.8-4.4
	c-1.1-0.3-21.5-5.1-26-13.6c0,0-3.2-5.2-1.2-6c12.7-5.3,1.1-12.5,2.7-27.3c1.7-14.8,14.6-25.4,23.2-30.9
	c17.2-11.1,42.8-10.6,46.7-10.6H452.6z"/>
<path class="st1" d="M452.2,1053c4.2,0,27.3-1.7,44.6,8.6c9.3,5.5,23.3,13.5,23.1,39.2c-0.1,17.2-20.9,25.8-9.6,34.3
	c1.9,1.5,1.5,4.3,1.5,4.3c-8.3,7.5-34.4,7.2-35.7,7.3c-7.7,0.4-12.2-0.2-24.4-0.2h-0.9c-12.2,0-16.7,0.7-24.4,0.2
	c-1.2-0.1-27.4,0.2-35.7-7.3c0,0-0.4-2.8,1.5-4.3c11.3-8.5-9.5-17.1-9.6-34.3c-0.2-25.7,13.8-33.7,23.1-39.2
	c17.3-10.2,40.4-8.6,44.6-8.6H452.2z"/>
<path class="st1" d="M451.9,1254.4c4.3,0,11.9,1.2,15.9,2.2c4.5,1.2,14.5,7.5,18.5,9.8c5,2.9,13.2,4,25.5,13.9
	c9.6,7.8,16.6,13.4,14.9,27.8c-0.8,6.4-10.8,9.8-12.8,12.9c-9.6,14.7-37.6,22-61.9,22h-1.1c-24.3,0-52.3-7.3-61.9-22
	c-2.1-3.1-12-6.6-12.8-12.9c-1.7-14.4,5.3-20,14.9-27.8c12.3-10,20.5-11,25.5-13.9c4-2.3,14-8.6,18.5-9.8c4-1.1,11.5-2.2,15.9-2.2
	H451.9z"/>
<g id="Frame_1">
	<path class="st1" d="M452.5,57.7c4.6,0,9.6,0.1,13.9,1.1c4.8,1.2,14.6,5.9,18.8,8.2c5.3,2.9,17.7,3.8,30.8,13.6
		c10.2,7.7,16.2,21.8,16.1,34.9c0,2.5-9.2,9.5-18.2,13.6c-16.1,7.4-35.5,8.7-61.3,8.7h-2.4c-25.8,0-45.2-1.4-61.3-8.7
		c-9.1-4.2-18.2-11.1-18.2-13.6c-0.1-13.1,5.9-27.2,16.1-34.9c13.1-9.8,25.4-10.7,30.8-13.6c4.2-2.3,14-7,18.8-8.2
		c4.3-1,9.3-1.1,13.9-1.1L452.5,57.7L452.5,57.7z"/>
</g>
<path class="st2" d="M753.4,268.9c4,0,17.4,0,28.5,4.6c9.9,4.1,22.8,17.2,25.3,19.2c7,5.5,12.5,5.5,19.3,10.6
	c4.1,3.1,10.2,7.7,8.9,17.2c-0.3,2.2-12.5,11.3-20.8,14c-14.5,4.6-39.2,6.3-61.6,6.3h-2.8c-22.4,0-47.1-1.7-61.6-6.3
	c-8.3-2.7-20.5-11.7-20.8-14c-1.2-9.5,4.8-14.1,8.9-17.2c6.8-5.1,12.2-5.1,19.3-10.6c2.6-2,15.4-15.2,25.3-19.2
	c11.2-4.6,24.5-4.6,28.5-4.6H753.4z"/>
<path class="st2" d="M752.9,458c4.2,0,28.8,4.2,41.2,11.6c9.8,5.8,24,18.6,28.6,25.8c4.2,6.7,14.4,6.4,16.4,8.3s-0.1,6.1-0.1,6.1
	c-2.4,2.9-22,12.3-30.8,15.2c-15.2,5.1-32.3,11.3-55.8,11.3h-1.9c-23.5,0-40.6-6.2-55.8-11.3c-8.7-2.9-28.4-12.2-30.8-15.2
	c0,0-2.1-4.3-0.1-6.1c2-1.9,12.2-1.6,16.4-8.3c4.6-7.3,18.8-20,28.6-25.8c12.5-7.5,37.1-11.6,41.2-11.6H752.9z"/>
<path class="st2" d="M752.6,662.2c4.2,0,35.7-1.6,52.6,11.4c10.6,8.1,16.9,21.7,19.4,26.3c3.1,5.9,10,7.5,13.4,9.8
	c3,2-3.1,6.1-3.1,6.1c-8.6,5.8-23.6,11.9-32.4,14.2c-16,4.3-26.7,5.2-50.2,5.2h-1.2c-23.5,0-34.2-0.9-50.2-5.2
	c-8.8-2.4-23.8-8.4-32.4-14.2c0,0-6.1-4.1-3.1-6.1c3.4-2.2,10.3-3.9,13.4-9.8c2.5-4.7,8.8-18.2,19.4-26.3
	c16.9-13,48.4-11.4,52.6-11.4H752.6z"/>
<path class="st2" d="M752.9,852.1c3.9,0,29.5-0.4,46.7,10.6c8.5,5.5,21.5,16.1,23.2,30.9c1.7,14.9-9.9,22.1,2.7,27.3
	c2,0.8-1.2,6-1.2,6c-4.5,8.5-24.9,13.3-26,13.6c-6.6,1.7-24.4,4.4-45.8,4.4h-1.8c-21.4,0-39.2-2.7-45.8-4.4
	c-1.1-0.3-21.5-5.1-26-13.6c0,0-3.2-5.2-1.2-6c12.7-5.3,1.1-12.5,2.7-27.3c1.7-14.8,14.6-25.4,23.2-30.9
	c17.2-11.1,42.8-10.6,46.7-10.6H752.9z"/>
<path class="st2" d="M752.5,1053.6c4.2,0,27.3-1.7,44.6,8.6c9.3,5.5,23.3,13.5,23.1,39.2c-0.1,17.2-20.9,25.8-9.7,34.3
	c1.9,1.5,1.5,4.3,1.5,4.3c-8.3,7.5-34.4,7.2-35.7,7.3c-7.7,0.4-12.2-0.2-24.4-0.2H751c-12.2,0-16.7,0.7-24.4,0.2
	c-1.2-0.1-27.4,0.2-35.7-7.3c0,0-0.4-2.8,1.5-4.3c11.3-8.5-9.5-17.1-9.6-34.3c-0.2-25.7,13.8-33.7,23.1-39.2
	c17.3-10.2,40.4-8.6,44.6-8.6H752.5z"/>
<path class="st2" d="M752.2,1255c4.3,0,11.9,1.2,15.9,2.2c4.5,1.2,14.5,7.5,18.5,9.8c5,2.9,13.2,4,25.5,13.9
	c9.6,7.8,16.6,13.4,14.9,27.8c-0.8,6.4-10.8,9.8-12.8,12.9c-9.6,14.7-37.6,22-61.9,22h-1.1c-24.3,0-52.3-7.3-61.9-22
	c-2.1-3.1-12-6.6-12.8-12.9c-1.7-14.4,5.3-20,14.9-27.8c12.3-10,20.5-11,25.5-13.9c4-2.3,14-8.6,18.5-9.8c4-1.1,11.5-2.2,15.9-2.2
	H752.2z"/>
<g id="Frame_1_00000119824234580731286580000015256864274525812891_">
	<path class="st2" d="M752.8,58.3c4.6,0,9.6,0.1,13.9,1.1c4.8,1.2,14.6,5.9,18.8,8.2c5.3,2.9,17.7,3.8,30.8,13.6
		c10.2,7.7,16.2,21.8,16.1,34.9c0,2.5-9.2,9.5-18.2,13.6c-16.1,7.4-35.5,8.7-61.3,8.7h-2.5c-25.8,0-45.2-1.4-61.3-8.7
		c-9.1-4.2-18.2-11.1-18.2-13.6c-0.1-13.1,5.9-27.2,16.1-34.9c13.1-9.8,25.5-10.7,30.8-13.6c4.2-2.3,14-7,18.8-8.2
		c4.3-1,9.3-1.1,13.9-1.1H752.8L752.8,58.3z"/>
</g>


<path class="st0a" d="M1051.9,269.9c4,0,17.4,0,28.5,4.6c9.9,4.1,22.8,17.2,25.3,19.2c7,5.5,12.5,5.5,19.3,10.6
	c4.1,3.1,10.2,7.7,8.9,17.2c-0.3,2.2-12.5,11.3-20.8,14c-14.5,4.6-39.2,6.3-61.6,6.3h-2.8c-22.4,0-47.1-1.7-61.6-6.3
	c-8.3-2.7-20.5-11.7-20.8-14c-1.2-9.5,4.8-14.1,8.9-17.2c6.8-5.1,12.2-5.1,19.3-10.6c2.6-2,15.4-15.2,25.3-19.2
	c11.2-4.6,24.5-4.6,28.5-4.6H1051.9z"/>
<path class="st0a" d="M1051.5,458.9c4.2,0,28.8,4.2,41.2,11.6c9.8,5.8,24,18.6,28.6,25.8c4.2,6.7,14.4,6.4,16.4,8.3s-0.1,6.1-0.1,6.1
	c-2.4,2.9-22.1,12.3-30.8,15.2c-15.2,5.1-32.3,11.3-55.8,11.3h-1.8c-23.5,0-40.6-6.2-55.8-11.3c-8.7-2.9-28.4-12.2-30.7-15.2
	c0,0-2.1-4.3-0.1-6.1c2-1.9,12.2-1.6,16.4-8.3c4.6-7.3,18.8-20,28.6-25.8c12.5-7.5,37.1-11.6,41.2-11.6L1051.5,458.9L1051.5,458.9z"
	/>
<path class="st0a" d="M1051.1,663.1c4.2,0,35.7-1.6,52.6,11.4c10.6,8.1,16.9,21.7,19.4,26.3c3.1,5.9,10,7.5,13.4,9.8
	c3,2-3.1,6.1-3.1,6.1c-8.6,5.8-23.6,11.9-32.4,14.2c-16,4.3-26.7,5.2-50.2,5.2h-1.2c-23.5,0-34.2-0.9-50.2-5.2
	c-8.8-2.4-23.8-8.4-32.4-14.2c0,0-6.1-4.1-3.1-6.1c3.4-2.2,10.3-3.9,13.4-9.8c2.5-4.7,8.7-18.2,19.4-26.3
	c16.9-13,48.4-11.4,52.6-11.4H1051.1z"/>
<path class="st0a" d="M1051.4,853c3.8,0,29.5-0.4,46.7,10.6c8.5,5.5,21.5,16.1,23.2,30.9c1.7,14.9-9.9,22.1,2.7,27.3
	c2,0.8-1.2,6-1.2,6c-4.4,8.5-24.9,13.3-26,13.6c-6.6,1.7-24.4,4.4-45.8,4.4h-1.8c-21.4,0-39.2-2.7-45.8-4.4
	c-1.1-0.3-21.5-5.1-26-13.6c0,0-3.2-5.2-1.2-6c12.7-5.3,1.1-12.5,2.7-27.3c1.7-14.8,14.6-25.4,23.2-30.9
	c17.2-11.1,42.8-10.6,46.7-10.6H1051.4z"/>
<path class="st0a" d="M1051,1054.7c4.2,0,27.3-1.7,44.6,8.6c9.3,5.5,23.3,13.5,23.1,39.2c-0.1,17.2-20.9,25.8-9.6,34.3
	c1.9,1.5,1.5,4.3,1.5,4.3c-8.3,7.5-34.4,7.2-35.7,7.3c-7.7,0.4-12.2-0.2-24.4-0.2h-0.9c-12.2,0-16.7,0.7-24.4,0.2
	c-1.2-0.1-27.4,0.2-35.7-7.3c0,0-0.4-2.8,1.5-4.3c11.3-8.5-9.5-17.1-9.6-34.3c-0.2-25.7,13.8-33.7,23.1-39.2
	c17.3-10.2,40.4-8.6,44.6-8.6H1051z"/>
<path class="st0a" d="M1050.7,1256c4.3,0,11.8,1.2,15.9,2.2c4.5,1.2,14.5,7.5,18.5,9.8c5,2.9,13.2,4,25.5,13.9
	c9.6,7.8,16.6,13.4,14.9,27.8c-0.8,6.4-10.8,9.8-12.8,12.9c-9.6,14.7-37.6,22-61.9,22h-1.1c-24.3,0-52.3-7.3-61.9-22
	c-2.1-3.1-12-6.6-12.8-12.9c-1.7-14.4,5.3-20,14.9-27.8c12.3-10,20.5-11,25.5-13.9c4-2.3,14-8.6,18.5-9.8c4-1.1,11.6-2.2,15.9-2.2
	H1050.7z"/>
<g id="Frame_1_00000150782897985443013530000011088917714948522883_">
	<path class="st0a" d="M1051.4,59.3c4.6,0,9.6,0.1,13.9,1.1c4.8,1.2,14.6,5.9,18.8,8.2c5.3,2.9,17.7,3.8,30.8,13.6
		c10.2,7.7,16.2,21.8,16.1,34.9c0,2.5-9.2,9.5-18.2,13.6c-16.1,7.4-35.5,8.7-61.3,8.7h-2.4c-25.8,0-45.2-1.4-61.3-8.7
		c-9.1-4.2-18.2-11.1-18.2-13.6c-0.4-13.2,5.6-27.3,15.8-34.9c13.1-9.9,25.5-10.8,30.8-13.7c4.2-2.3,14-7,18.8-8.2
		c4.3-1,9.3-1.1,13.9-1.1L1051.4,59.3L1051.4,59.3z"/>
</g>

<path class="st1a" d="M1355,269.6c4,0,17.4,0,28.5,4.6c9.9,4.1,22.8,17.2,25.3,19.2c7,5.5,12.5,5.5,19.3,10.6
	c4.1,3.1,10.2,7.7,8.9,17.2c-0.3,2.2-12.5,11.3-20.8,14c-14.5,4.6-39.2,6.3-61.6,6.3h-2.8c-22.4,0-47.1-1.7-61.6-6.3
	c-8.3-2.7-20.5-11.7-20.8-14c-1.2-9.5,4.8-14.1,8.9-17.2c6.8-5.1,12.2-5.1,19.3-10.6c2.6-2,15.4-15.2,25.3-19.2
	c11.2-4.6,24.5-4.6,28.5-4.6H1355z"/>
<path class="st1a" d="M1354.6,458.6c4.2,0,28.8,4.2,41.2,11.6c9.8,5.8,24,18.6,28.6,25.8c4.2,6.7,14.4,6.4,16.4,8.3s-0.1,6.1-0.1,6.1
	c-2.4,2.9-22,12.3-30.8,15.2c-15.2,5.1-32.3,11.3-55.8,11.3h-1.9c-23.5,0-40.6-6.2-55.8-11.3c-8.7-2.9-28.4-12.2-30.8-15.2
	c0,0-2.1-4.3-0.1-6.1c2-1.9,12.2-1.6,16.4-8.3c4.6-7.3,18.8-20,28.6-25.8c12.5-7.5,37.1-11.6,41.2-11.6L1354.6,458.6L1354.6,458.6z"
	/>
<path class="st1a" d="M1354.2,662.8c4.2,0,35.7-1.6,52.6,11.4c10.6,8.1,16.9,21.7,19.4,26.3c3.1,5.9,10,7.5,13.4,9.8
	c3,2-3.1,6.1-3.1,6.1c-8.6,5.8-23.6,11.9-32.4,14.2c-16,4.3-26.7,5.2-50.2,5.2h-1.2c-23.5,0-34.2-0.9-50.2-5.2
	c-8.8-2.4-23.8-8.4-32.4-14.2c0,0-6.1-4.1-3.1-6.1c3.4-2.2,10.3-3.9,13.4-9.8c2.5-4.7,8.8-18.2,19.4-26.3
	c16.9-13,48.4-11.4,52.6-11.4H1354.2z"/>
<path class="st1a" d="M1354.5,852.8c3.9,0,29.5-0.4,46.7,10.6c8.5,5.5,21.5,16.1,23.2,30.9c1.7,14.9-9.9,22.1,2.7,27.3
	c2,0.8-1.2,6-1.2,6c-4.4,8.5-24.9,13.3-26,13.6c-6.6,1.7-24.4,4.4-45.8,4.4h-1.8c-21.4,0-39.2-2.7-45.8-4.4
	c-1.1-0.3-21.5-5.1-26-13.6c0,0-3.2-5.2-1.2-6c12.7-5.3,1.1-12.5,2.7-27.3c1.7-14.8,14.6-25.4,23.2-30.9
	c17.2-11.1,42.8-10.6,46.7-10.6H1354.5z"/>
<path class="st1a" d="M1354.1,1054.3c4.2,0,27.3-1.7,44.6,8.6c9.3,5.5,23.3,13.5,23.1,39.2c-0.1,17.2-20.9,25.8-9.6,34.3
	c1.9,1.5,1.5,4.3,1.5,4.3c-8.3,7.5-34.4,7.2-35.7,7.3c-7.7,0.4-12.2-0.2-24.4-0.2h-0.9c-12.2,0-16.7,0.7-24.4,0.2
	c-1.2-0.1-27.4,0.2-35.7-7.3c0,0-0.4-2.8,1.5-4.3c11.3-8.5-9.5-17.1-9.6-34.3c-0.2-25.7,13.8-33.7,23.1-39.2
	c17.3-10.2,40.4-8.6,44.6-8.6H1354.1z"/>
<path class="st1a" d="M1353.8,1255.8c4.3,0,11.9,1.2,15.9,2.2c4.5,1.2,14.5,7.5,18.5,9.8c5,2.9,13.2,4,25.5,13.9
	c9.6,7.8,16.6,13.4,14.9,27.8c-0.8,6.4-10.8,9.8-12.8,12.9c-9.6,14.7-37.6,22-61.9,22h-1.1c-24.3,0-52.3-7.3-61.9-22
	c-2.1-3.1-12-6.6-12.8-12.9c-1.7-14.4,5.3-20,14.9-27.8c12.3-10,20.5-11,25.5-13.9c4-2.3,14-8.6,18.5-9.8c4-1.1,11.5-2.2,15.9-2.2
	H1353.8z"/>
<g id="Frame_1_00000005246316897033229310000006657797129919063183_">
	<path class="st1a" d="M1354.4,59c4.6,0,9.6,0.1,13.9,1.1c4.8,1.2,14.6,5.9,18.8,8.2c5.3,2.9,17.7,3.8,30.8,13.6
		c10.2,7.7,16.2,21.8,16.1,34.9c0,2.5-9.2,9.5-18.2,13.6c-16.1,7.4-35.5,8.7-61.3,8.7h-2.4c-25.8,0-45.2-1.4-61.3-8.7
		c-9.1-4.2-18.2-11.1-18.2-13.6c-0.1-13.1,5.9-27.2,16.1-34.9c13.1-9.8,25.4-10.7,30.8-13.6c4.2-2.3,14-7,18.8-8.2
		c4.3-1,9.3-1.1,13.9-1.1L1354.4,59L1354.4,59z"/>
</g>
<path class="st2a" d="M1653.3,270.2c4,0,17.4,0,28.5,4.6c9.9,4.1,22.8,17.2,25.3,19.2c7,5.5,12.5,5.5,19.3,10.6
	c4.1,3.1,10.2,7.7,8.9,17.2c-0.3,2.2-12.5,11.3-20.8,14c-14.5,4.6-39.2,6.3-61.6,6.3h-2.8c-22.4,0-47.1-1.7-61.6-6.3
	c-8.3-2.7-20.5-11.7-20.8-14c-1.2-9.5,4.8-14.1,8.9-17.2c6.8-5.1,12.2-5.1,19.3-10.6c2.6-2,15.4-15.2,25.3-19.2
	c11.2-4.6,24.5-4.6,28.5-4.6H1653.3z"/>
<path class="st2a" d="M1652.8,459.3c4.2,0,28.8,4.2,41.2,11.6c9.8,5.8,24,18.6,28.6,25.8c4.2,6.7,14.4,6.4,16.4,8.3s-0.1,6.1-0.1,6.1
	c-2.4,2.9-22,12.3-30.8,15.2c-15.2,5.1-32.3,11.3-55.8,11.3h-1.9c-23.5,0-40.6-6.2-55.8-11.3c-8.7-2.9-28.4-12.2-30.8-15.2
	c0,0-2.1-4.3-0.1-6.1c2-1.9,12.2-1.6,16.4-8.3c4.6-7.3,18.8-20,28.6-25.8c12.5-7.5,37.1-11.6,41.2-11.6H1652.8z"/>
<path class="st2a" d="M1652.5,663.5c4.2,0,35.7-1.6,52.6,11.4c10.6,8.1,16.9,21.7,19.4,26.3c3.1,5.9,10,7.5,13.4,9.8
	c3,2-3.1,6.1-3.1,6.1c-8.6,5.8-23.6,11.9-32.4,14.2c-16,4.3-26.7,5.2-50.2,5.2h-1.2c-23.5,0-34.2-0.9-50.2-5.2
	c-8.8-2.4-23.8-8.4-32.4-14.2c0,0-6.1-4.1-3.1-6.1c3.4-2.2,10.3-3.9,13.4-9.8c2.5-4.7,8.8-18.2,19.4-26.3
	c16.9-13,48.4-11.4,52.6-11.4H1652.5z"/>
<path class="st2a" d="M1652.8,853.4c3.9,0,29.5-0.4,46.7,10.6c8.5,5.5,21.5,16.1,23.2,30.9c1.7,14.9-9.9,22.1,2.7,27.3
	c2,0.8-1.2,6-1.2,6c-4.5,8.5-24.9,13.3-26,13.6c-6.6,1.7-24.4,4.4-45.8,4.4h-1.8c-21.4,0-39.2-2.7-45.8-4.4
	c-1.1-0.3-21.5-5.1-26-13.6c0,0-3.2-5.2-1.2-6c12.7-5.3,1.1-12.5,2.7-27.3c1.7-14.8,14.6-25.4,23.2-30.9
	c17.2-11.1,42.8-10.6,46.7-10.6H1652.8z"/>
<path class="st2a" d="M1652.4,1054.9c4.2,0,27.3-1.7,44.6,8.6c9.3,5.5,23.3,13.5,23.1,39.2c-0.1,17.2-20.9,25.8-9.7,34.3
	c1.9,1.5,1.5,4.3,1.5,4.3c-8.3,7.5-34.4,7.2-35.7,7.3c-7.7,0.4-12.2-0.2-24.4-0.2h-0.9c-12.2,0-16.7,0.7-24.4,0.2
	c-1.2-0.1-27.4,0.2-35.7-7.3c0,0-0.4-2.8,1.5-4.3c11.3-8.5-9.5-17.1-9.6-34.3c-0.2-25.7,13.8-33.7,23.1-39.2
	c17.3-10.2,40.4-8.6,44.6-8.6H1652.4z"/>
<path class="st2a" d="M1652.1,1256.3c4.3,0,11.9,1.2,15.9,2.2c4.5,1.2,14.5,7.5,18.5,9.8c5,2.9,13.2,4,25.5,13.9
	c9.6,7.8,16.6,13.4,14.9,27.8c-0.8,6.4-10.8,9.8-12.8,12.9c-9.6,14.7-37.6,22-61.9,22h-1.1c-24.3,0-52.3-7.3-61.9-22
	c-2.1-3.1-12-6.6-12.8-12.9c-1.7-14.4,5.3-20,14.9-27.8c12.3-10,20.5-11,25.5-13.9c4-2.3,14-8.6,18.5-9.8c4-1.1,11.5-2.2,15.9-2.2
	H1652.1z"/>
<g id="Frame_1_00000083798142085371113050000009693103671129003659_">
	<path class="st2a" d="M1652.7,59.6c4.6,0,9.6,0.1,13.9,1.1c4.8,1.2,14.6,5.9,18.8,8.2c5.3,2.9,17.7,3.8,30.8,13.6
		c10.2,7.7,16.2,21.8,16.1,34.9c0,2.5-9.2,9.5-18.2,13.6c-16.1,7.4-35.5,8.7-61.3,8.7h-2.5c-25.8,0-45.2-1.4-61.3-8.7
		c-9.1-4.2-18.2-11.1-18.2-13.6c-0.1-13.1,5.9-27.2,16.1-34.9c13.1-9.8,25.5-10.7,30.8-13.6c4.2-2.3,14-7,18.8-8.2
		c4.3-1,9.3-1.1,13.9-1.1L1652.7,59.6L1652.7,59.6z"/>
</g></svg>
