<?xml version="1.0"?>
<svg xmlns="http://www.w3.org/2000/svg" viewBox="0 0 50 50">
    <path style="text-indent:0;text-align:start;line-height:normal;text-transform:none;block-progression:tb;-inkscape-font-specification:Sans" d="M 27.4375 2 A 1.0043849 1.0043849 0 0 0 26.96875 2.21875 L 17.78125 5.59375 A 1.0001 1.0001 0 0 0 17.4375 5.78125 L 8.375 14.25 A 1.0001 1.0001 0 0 0 8.1875 14.46875 L 2.25 24.65625 A 1.0001 1.0001 0 0 0 2.15625 24.8125 L 2.125 24.875 A 1.0001 1.0001 0 0 0 2.09375 24.90625 A 1.0001 1.0001 0 0 0 2.09375 24.96875 A 1.0001 1.0001 0 0 0 2.0625 25.03125 A 1.0001 1.0001 0 0 0 2.03125 25.0625 A 1.0001 1.0001 0 0 0 2.03125 25.09375 A 1.0001 1.0001 0 0 0 2 25.15625 A 1.0001 1.0001 0 0 0 2 25.1875 A 1.0001 1.0001 0 0 0 2 25.25 A 1.0001 1.0001 0 0 0 2 25.28125 A 1.0001 1.0001 0 0 0 2 25.34375 A 1.0001 1.0001 0 0 0 2 25.375 A 1.0001 1.0001 0 0 0 2 25.5625 L 2 37.9375 A 1.0001 1.0001 0 0 0 2 38.0625 L 2 38.09375 A 1.0001 1.0001 0 0 0 2.03125 38.375 C 2.23433 42.729392 4.0128255 45.27937 6.15625 46.53125 C 8.1937299 47.721252 10.384704 47.835701 11.75 47.875 C 11.856433 47.878064 11.99835 47.872265 12.09375 47.875 L 12.1875 47.875 A 1.0001 1.0001 0 0 0 12.34375 47.84375 L 12.375 47.84375 L 44.40625 45.65625 A 1.006934 1.006934 0 0 0 44.625 45.65625 A 1.0001 1.0001 0 0 0 44.9375 45.5625 A 1.006934 1.006934 0 0 0 45.125 45.4375 A 1.0001 1.0001 0 0 0 45.15625 45.4375 A 1.006934 1.006934 0 0 0 45.53125 44.4375 L 47.90625 13.1875 C 47.908399 13.167086 47.904174 13.145426 47.90625 13.125 L 48 11.9375 A 1.0001 1.0001 0 0 0 47.96875 11.53125 C 47.968729 10.515352 47.876675 9.5090038 47.625 8.53125 C 46.854744 5.5388181 44.537745 2.9559945 40.21875 2.1875 A 1.0001221 1.0001221 0 0 0 40.03125 2.15625 A 1.0001 1.0001 0 0 0 39.96875 2.15625 L 27.75 2 A 1.0001 1.0001 0 0 0 27.53125 2 A 1.0043849 1.0043849 0 0 0 27.4375 2 z M 30.96875 4.03125 L 36.1875 4.09375 L 33.3125 5.6875 L 30.96875 4.03125 z M 27.59375 4.125 L 32.15625 7.34375 L 28.90625 17.6875 L 16.625 29.125 L 6.59375 31.375 L 4.125 25.4375 L 9.84375 15.59375 L 18.65625 7.40625 L 27.59375 4.125 z M 40.09375 4.21875 C 43.618827 4.9175306 45.087881 6.7017384 45.6875 9.03125 C 46.191639 10.989822 45.891143 13.333544 45.34375 15.5 L 35 7.03125 L 40.09375 4.21875 z M 33.84375 8.65625 L 43.28125 16.40625 L 31.15625 17.21875 L 33.84375 8.65625 z M 44.46875 18.3125 C 42.380803 23.962156 38.740041 28.762513 34.59375 33.28125 L 31.03125 19.1875 L 44.46875 18.3125 z M 29.21875 20.125 L 32.6875 33.96875 L 19.0625 29.5625 L 29.21875 20.125 z M 45.21875 21.90625 L 43.65625 42.53125 L 35.5625 35.3125 C 39.33608 31.271628 42.82456 26.933396 45.21875 21.90625 z M 4 30.40625 L 4.90625 32.5 L 4 34.15625 L 4 30.40625 z M 17.84375 31.28125 L 32.0625 35.84375 C 26.762206 40.614515 20.919519 44.377134 13.5625 45.5 L 17.84375 31.28125 z M 15.71875 31.375 L 11.9375 43.9375 L 7.375 33.25 L 15.71875 31.375 z M 5.875 34.84375 L 10.53125 45.75 C 9.4288141 45.642485 8.2345866 45.411059 7.15625 44.78125 C 5.5511552 43.843785 4.1940842 42.115444 4.03125 38.21875 L 5.875 34.84375 z M 34.09375 36.71875 L 42.125 43.84375 L 22 45.1875 C 26.539468 43.109196 30.464924 40.058705 34.09375 36.71875 z" overflow="visible" font-family="Sans"/>
</svg>
